<svg xmlns="http://www.w3.org/2000/svg" viewBox="0 0 1200 720" role="img" aria-labelledby="title desc"><title id="title">XtremeSystem refurbished tech and homelab bench</title><desc id="desc">A stylized IT workshop with refurbished computers, server rack, NAS storage, network switch, and monitoring node.</desc><defs><linearGradient id="bg" x1="0" x2="1" y1="0" y2="1"><stop offset="0" stop-color="#0b1116"/><stop offset=".52" stop-color="#14212a"/><stop offset="1" stop-color="#070b0f"/></linearGradient><linearGradient id="bench" x1="0" x2="1"><stop offset="0" stop-color="#5b4b38"/><stop offset=".5" stop-color="#a98257"/><stop offset="1" stop-color="#3b3026"/></linearGradient></defs><rect width="1200" height="720" fill="url(#bg)"/><circle cx="910" cy="160" r="260" fill="#28c4d3" opacity=".14"/><circle cx="1015" cy="295" r="170" fill="#34d399" opacity=".1"/><rect x="110" y="500" width="980" height="112" rx="8" fill="url(#bench)"/><rect x="90" y="612" width="1020" height="54" fill="#111a20"/><g stroke="#42545e" stroke-width="2"><rect x="730" y="86" width="278" height="420" rx="10" fill="#0a0f14"/><rect x="752" y="116" width="232" height="34" rx="4" fill="#18252c"/><rect x="752" y="170" width="232" height="34" rx="4" fill="#18252c"/><rect x="752" y="224" width="232" height="34" rx="4" fill="#18252c"/><rect x="752" y="278" width="232" height="34" rx="4" fill="#18252c"/><rect x="752" y="332" width="232" height="34" rx="4" fill="#18252c"/><rect x="752" y="386" width="232" height="64" rx="4" fill="#111a20"/></g><g fill="#28c4d3"><circle cx="776" cy="133" r="5"/><circle cx="796" cy="133" r="5"/><circle cx="816" cy="133" r="5"/><circle cx="776" cy="187" r="5"/><circle cx="796" cy="187" r="5"/><circle cx="816" cy="187" r="5"/><circle cx="776" cy="241" r="5"/><circle cx="796" cy="241" r="5"/><circle cx="816" cy="241" r="5"/></g><g fill="#34d399"><rect x="850" y="128" width="94" height="8" rx="4"/><rect x="850" y="182" width="122" height="8" rx="4"/><rect x="850" y="236" width="86" height="8" rx="4"/><rect x="850" y="290" width="130" height="8" rx="4"/><rect x="850" y="344" width="110" height="8" rx="4"/></g><g stroke="#536771" stroke-width="2"><rect x="425" y="285" width="166" height="228" rx="8" fill="#0d1318"/><rect x="448" y="316" width="54" height="150" rx="4" fill="#0b1116"/><rect x="516" y="316" width="54" height="150" rx="4" fill="#0b1116"/><rect x="620" y="342" width="188" height="172" rx="8" fill="#0b1015"/><rect x="250" y="260" width="134" height="254" rx="10" fill="#0d1318"/></g><circle cx="506" cy="488" r="6" fill="#34d399"/><circle cx="536" cy="488" r="6" fill="#28c4d3"/><path d="M90 138h378M90 184h270M90 230h324" stroke="#2c3f49" stroke-width="2" opacity=".7"/><path d="M90 138h92v92h144v-46h142" stroke="#28c4d3" stroke-width="3" fill="none" opacity=".7"/><path d="M90 230h118v-46h122v-46h138" stroke="#34d399" stroke-width="3" fill="none" opacity=".7"/><rect x="156" y="544" width="116" height="44" rx="5" fill="#23313a" stroke="#52646d"/><rect x="174" y="558" width="72" height="8" rx="4" fill="#28c4d3"/><circle cx="258" cy="566" r="5" fill="#34d399"/></svg>
